<svg width="500" height="500" xmlns="http://www.w3.org/2000/svg">
 <defs>
  <filter id="svg_4_blur">
   <feGaussianBlur stdDeviation="0"/>
  </filter>
  <linearGradient id="svg_12" x1="0.3" y1="0.7" x2="0.9" y2="0.1">
   <stop stop-color="#5e9252" stop-opacity="0.996094" offset="0"/>
   <stop stop-color="#77a588" offset="1"/>
  </linearGradient>
 </defs>
 <g>
  <title>background</title>
  <rect fill="none" id="canvas_background" height="502" width="502" y="-1" x="-1"/>
  <g display="none" id="canvasGrid">
   <rect fill="url(#gridpattern)" stroke-width="0" y="0" x="0" height="100%" width="100%" id="svg_1"/>
  </g>
 </g>
 <g>
  <title>Logo</title>
  <path filter="url(#svg_4_blur)" id="svg_4" d="m6.228227,478.571655c20.763026,-44.838196 49.182963,-82.812134 76.140646,-101.738708c28.880592,-20.275391 16.068474,-29.071106 -13.72522,-9.420471c-12.535202,8.26532 17.796852,-57.256958 36.231697,-79.364349c18.43483,-22.107391 45.327744,-59.029861 138.219208,-92.812088c92.891464,-33.782227 118.999405,-30.685684 164.160385,-43.678955c45.160919,-12.993256 61.844238,-22.484161 78.761322,-38.235245c16.917175,-15.751083 11.276306,-3.146049 5.025269,45.826874c-6.251007,48.972916 -30.869019,86.355103 -57.019196,120.118011c-27.742432,35.817871 -95.444336,103.983032 -157.583679,118.872498c-62.138245,14.889465 -131.081375,18.455322 -178.797882,8.406738c-23.778496,-5.00885 -31.325203,-1.182617 -43.646324,22.127258c-8.192116,15.502197 -14.896126,37.554932 -14.896126,49.006348c0,12.999878 -7.906395,20.820435 -21.049736,20.820435c-15.610695,0 -18.665002,-5.149414 -11.820342,-19.928345l-0.000022,0z" stroke-width="3" fill="url(#svg_12)"/>
  <path id="svg_5" d="m160.124817,0.448301l-57.020073,0l-46.61858,45.782412l0,55.997429l140.741009,138.269493l103.692688,-101.779022l-140.795044,-138.270312zm-69.653786,53.097567c-5.529633,-5.430603 -5.529633,-14.245544 0,-19.722221c5.576614,-5.430521 14.552689,-5.430521 20.082367,0c5.576599,5.476677 5.576599,14.291618 0,19.775963c-5.529678,5.422852 -14.505753,5.422852 -20.082367,-0.053741z" stroke-width="3" fill="#e2cf7f" transform="rotate(-159.644, 178.703, 120.473)"/>
 </g>
</svg>